# xmcd
#
# Track frame offsets: 
#        150
#        29558
#        51666
#        65672
#        89144
#
# Disc length: 1337 seconds
#
# Revision: 0
# Processed by: cddbd v1.5.2PL0 Copyright (c) Steve Scherf et al.
# Submitted via: ExactAudioCopy v0.95a5
#
DISCID=4e053705
DTITLE=Bartek Przytula and Silesian Little Band - Nieznany tytu³
DYEAR=2001
DGENRE=Bluesq
TTITLE0=My Babe
TTITLE1=Sweet Home Alabama
TTITLE2=Caldonia
TTITLE3=Georgia On My Mind
TTITLE4=Summertime
EXTD=
EXTT0=
EXTT1=
EXTT2=
EXTT3=
EXTT4=
PLAYORDER=
